<?xml version="1.0" encoding="utf-8"?>
<!-- Generator: Adobe Illustrator 26.3.1, SVG Export Plug-In . SVG Version: 6.00 Build 0)  -->
<svg version="1.1" id="Layer_1" xmlns="http://www.w3.org/2000/svg" xmlns:xlink="http://www.w3.org/1999/xlink" x="0px" y="0px"
	 viewBox="0 0 540 540" style="enable-background:new 0 0 540 540;" xml:space="preserve">
<style type="text/css">
	.st0{fill:#FFFFFF;}
</style>
<path class="st0" d="M292.6,519.5c-2.3,0.2-4.4,1.6-5.8,3.5s-2.1,4.6-1.8,7.2c0.5,5.1,4.4,8.8,9,8.8c0.4,0,0.5,0,0.9,0
	c2.3-0.2,4.4-1.6,5.8-3.5s2.1-4.6,1.8-7.2C301.8,522.9,297.6,519,292.6,519.5 M192.6,224.5c2.1,24,4.9,50.9,18.8,102.7
	c-0.2,0-0.2,0-0.4,0.2c-20.5-29.5-36.9-64.4-48.3-93.4c-13.3,3.9-25.1,6.7-39,9.8c6.3,74.8,22.5,133.9,55.1,199.6
	c11.4-2.5,23.9-5.4,34.9-8.6c-28.6-57-36-87.2-39-98.3c0.4,0,0.4-0.2,0.7-0.2c6.3,10.5,46.2,66.9,63,90.7
	c12.6-4.6,26.3-9.3,39.5-14.9c-22.8-67.9-39.8-118.5-47.9-201C218,215.7,204.9,220.1,192.6,224.5 M122,456.9
	c28.6-4.7,27.7-37.6,19-59.3c-19.5-48.4-31.8-97.6-34.9-150.4c-12.3,2-25.1,3.8-38.1,4.7c1.9,49.1,10.9,95.8,29.5,141.5
	c8.2,17.6,5.1,27.2-4.7,27.6C80,421.5,72.1,407.3,67,396.8c-23.8-46.6-31.8-93.9-31.8-144.4c-13.3-0.5-21.4-1.8-32.8-3.9
	c-3.9,56.7,7.9,108.5,37.4,158.8C63.2,448.1,93.6,461.4,122,456.9 M145,504.6c-0.9-1.1-4.2-5.3-5.3-6.7c9.1,1.4,20.2,2.5,20.2,2.5
	s-5.8-8.2-6.7-9.8c0,0-14-0.2-19.3-0.5c-0.7-0.9-4.2-6-5.1-7.4c18.1-0.4,27.9-1.2,27.9-1.2c-2.6-4-5.3-8.1-8.6-13.7l-0.2-0.2h-0.2
	c-14.6,2.3-34.2,4.2-50,5.1H97l0.5,0.5c0,0,0,0.2,0.2,0.2c3.3,4.6,15.6,20.4,35.8,37.2h0.2c28.6,10.2,46.5,14.4,46.5,14.4
	l-10.9-15.4C169.3,509.7,153.6,506.7,145,504.6 M269.5,462.8c0,0-6.1-19.3-7.9-24.2c-1.2,0.5-32.6,12.3-48.6,16.9l-0.4,0.2l0.2,0.4
	c1.2,2.5,2.5,4.6,3.7,6.7c1.9,3.3,5.8,10.7,5.8,10.7s9.8-1.8,11.2-2.1c10.4,23.9,17.7,44.8,23.9,68.3c0,0,6.3,0.2,8.4,0.4
	c2.3,0,9.1,0,9.1,0c-5.3-26.2-11.4-48.8-20.4-73C256,466.4,267,463.5,269.5,462.8 M312.3,418.1c-4.2,1.6-12.6,4.9-12.6,4.9
	c2.6,12.5-13.7,16.7-13.7,16.7l4.2,17.2c0,0,12.3-4,15.3-4.9c5.3,27.7,8.2,56.7,8.6,84.1c0,0,7-1.2,9.3-1.8c1.8-0.4,7-1.6,7-1.6
	c2.6-37.4,1.1-77.8-4.6-119.9C325.8,413,316.5,416.3,312.3,418.1 M524.9,186c-11.6-2.6-13.5-3.3-26-6.1
	c6.5,22.8,14.6,56.3,14.9,97.6c-0.2,0-0.2,0-0.4,0c-9.5-36.2-29.1-74.4-49.7-104.6c-13-2.3-29-4.4-42.5-5.3
	c20.7,82.5,23.7,131.3,16,197.8c13.2-1.4,19-1.8,29.1-2.3c4.6-26.3,8.2-62.5,3.9-109.5c0.2,0,0.4,0,0.7,0
	c4.7,10.2,23.9,54.9,23.2,109.4c11.8,0.4,13.2,0.5,27.2,1.6c11.1-29.5,17-61.4,17-95C538.2,240.5,533.5,212.4,524.9,186 M498,391.1
	c0,0.2-4,10.9-11.4,27.9c-4.6,1.9-10,3.9-11.1,4.4c4.4-10.9,10.4-27,14.9-43.7l0.2-0.4h-0.4c-0.7-0.2-2.1-0.2-4.2-0.2
	c-4.2,0-9.5,0.4-9.7,0.4h-0.2v0.2c0,0.4-7.4,27.7-16,49.3c-2.6,12.3-3.7,17-3.7,17l-0.2,0.7c0,0,10.9-4.9,20-9.8
	c-4.7,10-9.1,18.3-13,24.4l-1.1,1.6l1.6-1.2c8.8-6.7,17.9-14.4,17.9-14.4v-0.2c0,0,7-8.8,12.5-19.8c3.5-2.1,6.8-4.2,9.3-6l5.8-11.9
	c0,0-6,2.5-8.2,3.3c3-6.5,8.8-19,10.9-26.3C508,387.9,498,391.1,498,391.1 M375,438.6c-1.2,20.2-4.9,24.9-9.1,26.3
	c-4.2,1.2-6.3-2.5-6.3-22.3c0-18.3,3.2-22.8,8.1-23.9C372.9,417.6,376.2,419.8,375,438.6 M367.9,396.5c-19.3,5.6-29,24-28.4,54.6
	c0.2,12.1,3.9,32.5,16.1,32.5c1.2,0,2.3-0.2,3.7-0.5c4.6-1.2,9-3.9,11.9-7.2c0,0.5-0.2,1.2-0.2,1.9c-1.1,9.8-2.8,26.2-9.1,28.3
	c-2.3,0.7-3.9-3-4-9.3c0,0-6,1.9-7.9,2.6c-2.1,0.7-8.4,2.6-8.4,2.6c1.1,22.5,9.1,25.8,13.9,25.8c0.9,0,1.9-0.2,2.8-0.4
	c24.4-6.3,33.5-59,36.2-81.4c0-0.7,0.2-1.1,0.2-1.2c1.4-14.6,2.5-34.9-6-44.4C384.1,395.3,377.1,393.9,367.9,396.5 M432.4,458.6
	c-4.6,14.2-7.5,21.1-12.3,24.4c-4,2.8-5.4,1.9-2.3-17.4c3.2-18.6,10.2-22.8,13.3-24.2C435.2,439.7,437.8,441.6,432.4,458.6
	 M439.6,421.1c-4.7,1.1-9.8,4.9-15.1,11.4c1.1-6,5.4-29.8,12.8-32.3c1.4-0.5,2.5-0.4,3,0.5c1.8,2.3,0.4,8.8,0,10
	c0,0,15.4-5.6,16.9-6c1.1-8.6,0-15.1-3.5-19.1c-3.3-3.9-7.9-4.7-11.1-4.7c-0.9,0-1.6,0-2.5,0.2c-4.7,0.5-11.8,3.2-18.8,12.5
	c-7,9.1-12.3,22.5-15.6,39.7c-1.1,4.9-2.3,12.3-3.5,19.3c-0.9,5.1-1.8,9.8-2.5,13.2c-3.7,19.1-3.5,31.2,0.4,36
	c1.2,1.6,2.8,2.3,4.9,2.3c2.8,0,6.3-1.6,10.5-4.7c15.4-11.6,27.7-30.5,33-50.6c1.2-4.7,5.1-19.3,0.5-25.3
	C446.9,420.9,443.8,420.2,439.6,421.1 M204,489l-2.1-0.7c-0.9-0.4-1.8-0.5-2.8-0.9c-7-2.3-14.9-4.9-16.5-8.1c-0.7-1.6-0.9-3-0.4-4
	c0.5-1.2,1.8-1.9,3.5-2.5c4.4-1.1,7.9,0.4,10.5,4l0.2,0.2l16.9-1.8l-0.2-0.5c-4.9-10.4-14.2-16.3-25.6-16.3c-2.8,0-5.6,0.4-8.4,1.1
	c-7.4,1.9-12.5,5.3-14.4,10c-1.8,3.9-1.2,8.4,1.4,13c6.1,11.1,18.6,16.1,29.8,20.5l0.5,0.2c12.8,5.1,17.7,7.9,20,13
	c0.7,1.8,0.7,3.7-0.2,5.1c-1.2,1.8-3.5,2.6-6.1,2.5c-6.3-0.5-11.1-4-15.1-11.4v-0.2l-16.3-2.1l0.4,0.7c9,14,21.9,23.3,36.3,26.2
	c1.6,0.4,3.2,0.5,4.7,0.5l0,0c6.1,0,11.2-2.6,14.4-7.4c3.5-5.3,3.9-12.5,0.9-19.3C228.8,497.1,217.3,493.4,204,489 M48.5,233.4
	c38.6,1.2,57-36.5,57.6-65.8c0.4-22.1-8.2-39.1-29.3-48.4c-6.7-3-7.9-9.5-5.1-17.6c2.4-7.5,6.8-13.7,11.9-16.7
	c5.6-3.2,6.1-0.4,5.3,8.8c0,0,7-3.5,9.3-4.6c2.8-1.4,11.2-5.3,11.2-5.3c1.6-8.2,10.9-42.3-12.5-27.2C76.1,70,55.9,86.9,45,109.2
	c-7.9,16.1-6.1,38.8,12.3,48.1c11.6,5.8,17.6,13.5,15.8,27c-1.6,11.9-9.1,18.3-16.5,19.5c-14.9,2.5-18.4-14.4-17.2-26.2L15,183.8
	C11.3,208.7,22.2,232.7,48.5,233.4 M376.4,344.9c-11.4,2.8-17.9-33.7-24.2-69.7c-5.8-33.2-9.7-67.9,4.2-71.3
	c18.1-4.4,26.3,28.6,29.5,64.1C388.7,302.4,392.2,341.2,376.4,344.9 M350.7,170.6c-55.5,12.6-39,94.6-35.3,118.7
	c9.5,61.6,34.2,96.4,62.7,89.9c46-10.5,49.5-53.4,44.1-112C417.6,217.5,402,159,350.7,170.6 M476.9,154.3
	c-3.9-11.4-7.4-20.4-11.2-29.8c4.9,1.2,10.9,2.8,16.3,4.4c5.3,11.8,7.5,17.6,11.8,28.8c10.2,2.1,17.4,4,22.6,5.1
	c-16.7-39.7-31.1-62-43-79.9c-7.2-5.6-12.1-9.5-21.1-14.7c6.3,11.2,13,23.2,20,36.3l0,0c-6-2.3-12.5-4.6-17.7-6.3
	c-9-18.1-18.4-34.4-25.1-45.8c-6.1-4.6-12.3-8.8-23.3-15.4c7.9,12.6,29.5,55.5,45.3,112.7C460.1,151.1,469.8,152.9,476.9,154.3
	 M366.7,41.4c12.8,35.5,17.4,50.6,33.2,104.4c10.7-0.2,19.8,0.5,27.6,1.1c-11.4-35.6-22.1-66.3-37.4-98.6c6.3,2.1,9.7,3.5,17,6.3
	c-5.1-9.5-8.6-16.7-13.9-24.9c-15.8-8.4-36.5-16.5-53.7-21.1c4.6,10.7,7.5,17.7,11.8,29.1C360.4,39.8,360.8,40,366.7,41.4
	 M315.6,37.9c0.2,0,1.2,0,1.6,0c4.9,15.6,11.9,38.3,18.3,62.5c-5.6,0.5-15.3,1.8-21.4,2.6C314.1,89.9,314.8,49.7,315.6,37.9
	 M314.6,160.8c0.2-9.8-0.5-13.5-0.4-24.7c12.5-3,19.3-4.4,28.8-6c2.1,7.7,3.5,14.6,5.3,21.9c10.4-2.1,15.8-3.2,26.7-4.4
	c-13.2-48.3-29.3-95.7-47.4-141.8c-10.9-2.5-20.7-3.9-31.9-4.7c-7.9,60.2-11.1,98.6-10,169.4C295.8,166.6,302.1,164.6,314.6,160.8
	 M122.7,222.6c11.9-2.3,23.5-5.6,35.3-8.6c-2.8-57,0.5-103.4,13.9-161.7c7.4-2.3,9-2.6,17.2-4.9c3-12.6,6.1-25.3,10-37.6
	c-23,6-43.2,14.6-63.5,26.3c-4.9,11.4-7.2,20.4-11.9,34.4c8.4-3.7,12.8-5.4,20.7-8.4C128.2,114.8,121,167.1,122.7,222.6 M234.5,29.7
	c2.6-0.5,4.7-0.9,7.4-1.2c6.7-0.9,11.2,0,8.4,20.5c-1.6,11.6-3.9,28.6-17.7,31.2c-2.6,0.5-4.6,0.9-7.2,1.4
	C228.4,59.8,231.4,46.9,234.5,29.7 M191.2,203.6c15.6-5.1,23.2-8.1,31.8-10.9c-1.8-27.6-1.6-52.5,0.2-78.1c1.9-0.4,1.8-0.4,3.7-0.9
	c7.7-1.8,8.6,2.3,9.7,13.5c0.9,9.3,1.2,24.2,2.5,35.1c1.4,11.6,2.5,18.4,5.1,22.5c15.1-5.3,21.9-7.9,31.9-11.2c0-1.4-0.2-1.6-0.2-3
	c-2.5-3.2-3.7-7.7-5.6-30.7c-1.1-12.5-3-30.2-14.4-38.6c-0.4-0.2-0.9-0.7-0.9-0.9c0-0.5,0.2-0.9,0.2-1.4c0.4-0.2,0.4-0.2,0.7-0.5
	c19.8-14,21.8-37.9,23.3-59.2C280.8,18.4,276-1.6,252,0c-12.3,0.9-25.5,2.8-37.9,6C203.8,48.6,187.2,101.3,191.2,203.6 M295.1,405.4
	c14-5.3,13.7-5.3,27.6-10.4c-3.9-26-14.6-62-22.6-102.3c-6.5-32.6-11.2-65.6-16.1-100.6c-11.4,4-24.2,8.6-36,12.6
	C257.9,296.1,279.3,357.2,295.1,405.4"/>
</svg>
